<mxfile host="app.diagrams.net" modified="2022-07-18T07:07:13.636Z" agent="5.0 (Windows NT 10.0; Win64; x64) AppleWebKit/537.36 (KHTML, like Gecko) Chrome/103.0.0.0 Safari/537.36" etag="g_hXgMmgfv9pBM5TmbyJ" version="20.1.1" type="github">
  <diagram id="C5RBs43oDa-KdzZeNtuy" name="Page-1">
    <mxGraphModel dx="2842" dy="896" grid="1" gridSize="10" guides="1" tooltips="1" connect="1" arrows="1" fold="1" page="1" pageScale="1" pageWidth="1169" pageHeight="827" math="0" shadow="0">
      <root>
        <mxCell id="WIyWlLk6GJQsqaUBKTNV-0" />
        <mxCell id="WIyWlLk6GJQsqaUBKTNV-1" parent="WIyWlLk6GJQsqaUBKTNV-0" />
        <mxCell id="UZ-7OsgffG4RP6xPJJBt-0" value="" style="rounded=0;whiteSpace=wrap;html=1;" parent="WIyWlLk6GJQsqaUBKTNV-1" vertex="1">
          <mxGeometry x="-1157" y="1" width="1146" height="810" as="geometry" />
        </mxCell>
        <mxCell id="D-ogVkgkDjXILA013YRQ-28" value="ModelBase" style="swimlane;fontStyle=1;align=center;verticalAlign=top;childLayout=stackLayout;horizontal=1;startSize=26;horizontalStack=0;resizeParent=1;resizeLast=0;collapsible=1;marginBottom=0;rounded=0;shadow=0;strokeWidth=1;" parent="WIyWlLk6GJQsqaUBKTNV-1" vertex="1">
          <mxGeometry x="-508.5" y="320" width="340" height="250" as="geometry">
            <mxRectangle x="230" y="140" width="160" height="26" as="alternateBounds" />
          </mxGeometry>
        </mxCell>
        <mxCell id="D-ogVkgkDjXILA013YRQ-29" value="# file_operator : FileOperator" style="text;align=left;verticalAlign=top;spacingLeft=4;spacingRight=4;overflow=hidden;rotatable=0;points=[[0,0.5],[1,0.5]];portConstraint=eastwest;" parent="D-ogVkgkDjXILA013YRQ-28" vertex="1">
          <mxGeometry y="26" width="340" height="26" as="geometry" />
        </mxCell>
        <mxCell id="gn1iUnahTkc9VjTUZe64-22" value="- predict_info : AisvPredictInfo" style="text;align=left;verticalAlign=top;spacingLeft=4;spacingRight=4;overflow=hidden;rotatable=0;points=[[0,0.5],[1,0.5]];portConstraint=eastwest;" vertex="1" parent="D-ogVkgkDjXILA013YRQ-28">
          <mxGeometry y="52" width="340" height="26" as="geometry" />
        </mxCell>
        <mxCell id="D-ogVkgkDjXILA013YRQ-30" value="- model_info : AisvModelInfo" style="text;align=left;verticalAlign=top;spacingLeft=4;spacingRight=4;overflow=hidden;rotatable=0;points=[[0,0.5],[1,0.5]];portConstraint=eastwest;rounded=0;shadow=0;html=0;" parent="D-ogVkgkDjXILA013YRQ-28" vertex="1">
          <mxGeometry y="78" width="340" height="26" as="geometry" />
        </mxCell>
        <mxCell id="D-ogVkgkDjXILA013YRQ-31" value="- m_check_session : bool" style="text;align=left;verticalAlign=top;spacingLeft=4;spacingRight=4;overflow=hidden;rotatable=0;points=[[0,0.5],[1,0.5]];portConstraint=eastwest;rounded=0;shadow=0;html=0;" parent="D-ogVkgkDjXILA013YRQ-28" vertex="1">
          <mxGeometry y="104" width="340" height="26" as="geometry" />
        </mxCell>
        <mxCell id="D-ogVkgkDjXILA013YRQ-34" value="" style="line;html=1;strokeWidth=1;align=left;verticalAlign=middle;spacingTop=-1;spacingLeft=3;spacingRight=3;rotatable=0;labelPosition=right;points=[];portConstraint=eastwest;" parent="D-ogVkgkDjXILA013YRQ-28" vertex="1">
          <mxGeometry y="130" width="340" height="8" as="geometry" />
        </mxCell>
        <mxCell id="D-ogVkgkDjXILA013YRQ-35" value="+ RunModel(const char *, const char *, const char *, bool, int)" style="text;align=left;verticalAlign=top;spacingLeft=4;spacingRight=4;overflow=hidden;rotatable=0;points=[[0,0.5],[1,0.5]];portConstraint=eastwest;" parent="D-ogVkgkDjXILA013YRQ-28" vertex="1">
          <mxGeometry y="138" width="340" height="28" as="geometry" />
        </mxCell>
        <mxCell id="D-ogVkgkDjXILA013YRQ-59" value="+ ShowInfo(string) : void" style="text;align=left;verticalAlign=top;spacingLeft=4;spacingRight=4;overflow=hidden;rotatable=0;points=[[0,0.5],[1,0.5]];portConstraint=eastwest;" parent="D-ogVkgkDjXILA013YRQ-28" vertex="1">
          <mxGeometry y="166" width="340" height="28" as="geometry" />
        </mxCell>
        <mxCell id="D-ogVkgkDjXILA013YRQ-62" value="+ OutputPreditInfo(const char *) : virtual void" style="text;align=left;verticalAlign=top;spacingLeft=4;spacingRight=4;overflow=hidden;rotatable=0;points=[[0,0.5],[1,0.5]];portConstraint=eastwest;" parent="D-ogVkgkDjXILA013YRQ-28" vertex="1">
          <mxGeometry y="194" width="340" height="28" as="geometry" />
        </mxCell>
        <mxCell id="gn1iUnahTkc9VjTUZe64-10" value="+ GetPredictInfo() : AisvPredictInfo " style="text;align=left;verticalAlign=top;spacingLeft=4;spacingRight=4;overflow=hidden;rotatable=0;points=[[0,0.5],[1,0.5]];portConstraint=eastwest;" vertex="1" parent="D-ogVkgkDjXILA013YRQ-28">
          <mxGeometry y="222" width="340" height="28" as="geometry" />
        </mxCell>
        <mxCell id="D-ogVkgkDjXILA013YRQ-36" value="" style="endArrow=block;endSize=10;endFill=0;shadow=0;strokeWidth=1;rounded=0;edgeStyle=elbowEdgeStyle;elbow=vertical;exitX=0.5;exitY=0;exitDx=0;exitDy=0;" parent="WIyWlLk6GJQsqaUBKTNV-1" source="D-ogVkgkDjXILA013YRQ-45" target="D-ogVkgkDjXILA013YRQ-28" edge="1">
          <mxGeometry width="160" relative="1" as="geometry">
            <mxPoint x="-548.5" y="622.5" as="sourcePoint" />
            <mxPoint x="-538.5" y="465.5" as="targetPoint" />
            <Array as="points">
              <mxPoint x="-338.5" y="633.5" />
            </Array>
          </mxGeometry>
        </mxCell>
        <mxCell id="D-ogVkgkDjXILA013YRQ-37" value="" style="endArrow=block;endSize=10;endFill=0;shadow=0;strokeWidth=1;rounded=0;edgeStyle=elbowEdgeStyle;elbow=vertical;exitX=0.5;exitY=0;exitDx=0;exitDy=0;" parent="WIyWlLk6GJQsqaUBKTNV-1" source="D-ogVkgkDjXILA013YRQ-47" target="D-ogVkgkDjXILA013YRQ-28" edge="1">
          <mxGeometry width="160" relative="1" as="geometry">
            <mxPoint x="-328.5" y="622.5" as="sourcePoint" />
            <mxPoint x="-428.5" y="533.5" as="targetPoint" />
            <Array as="points">
              <mxPoint x="-338.5" y="633.5" />
            </Array>
          </mxGeometry>
        </mxCell>
        <mxCell id="D-ogVkgkDjXILA013YRQ-39" value="CleanCodeTestApp" style="swimlane;fontStyle=1;align=center;verticalAlign=top;childLayout=stackLayout;horizontal=1;startSize=26;horizontalStack=0;resizeParent=1;resizeLast=0;collapsible=1;marginBottom=0;rounded=0;shadow=0;strokeWidth=1;" parent="WIyWlLk6GJQsqaUBKTNV-1" vertex="1">
          <mxGeometry x="-1116" y="17" width="283" height="392" as="geometry">
            <mxRectangle x="550" y="140" width="160" height="26" as="alternateBounds" />
          </mxGeometry>
        </mxCell>
        <mxCell id="D-ogVkgkDjXILA013YRQ-41" value="- path_operator : PathOperator " style="text;align=left;verticalAlign=top;spacingLeft=4;spacingRight=4;overflow=hidden;rotatable=0;points=[[0,0.5],[1,0.5]];portConstraint=eastwest;rounded=0;shadow=0;html=0;" parent="D-ogVkgkDjXILA013YRQ-39" vertex="1">
          <mxGeometry y="26" width="283" height="26" as="geometry" />
        </mxCell>
        <mxCell id="gn1iUnahTkc9VjTUZe64-0" value="- model_factory : ModelFactory" style="text;align=left;verticalAlign=top;spacingLeft=4;spacingRight=4;overflow=hidden;rotatable=0;points=[[0,0.5],[1,0.5]];portConstraint=eastwest;rounded=0;shadow=0;html=0;" vertex="1" parent="D-ogVkgkDjXILA013YRQ-39">
          <mxGeometry y="52" width="283" height="26" as="geometry" />
        </mxCell>
        <mxCell id="gn1iUnahTkc9VjTUZe64-1" value="- model : ModelBase* " style="text;align=left;verticalAlign=top;spacingLeft=4;spacingRight=4;overflow=hidden;rotatable=0;points=[[0,0.5],[1,0.5]];portConstraint=eastwest;rounded=0;shadow=0;html=0;" vertex="1" parent="D-ogVkgkDjXILA013YRQ-39">
          <mxGeometry y="78" width="283" height="26" as="geometry" />
        </mxCell>
        <mxCell id="D-ogVkgkDjXILA013YRQ-42" value="- all_model_type : string" style="text;align=left;verticalAlign=top;spacingLeft=4;spacingRight=4;overflow=hidden;rotatable=0;points=[[0,0.5],[1,0.5]];portConstraint=eastwest;rounded=0;shadow=0;html=0;" parent="D-ogVkgkDjXILA013YRQ-39" vertex="1">
          <mxGeometry y="104" width="283" height="26" as="geometry" />
        </mxCell>
        <mxCell id="KFr7-NrDYInFaLeutiJz-15" value="- all_model_path: const char *" style="text;align=left;verticalAlign=top;spacingLeft=4;spacingRight=4;overflow=hidden;rotatable=0;points=[[0,0.5],[1,0.5]];portConstraint=eastwest;rounded=0;shadow=0;html=0;" parent="D-ogVkgkDjXILA013YRQ-39" vertex="1">
          <mxGeometry y="130" width="283" height="26" as="geometry" />
        </mxCell>
        <mxCell id="KFr7-NrDYInFaLeutiJz-16" value="- all_image_path: const char *" style="text;align=left;verticalAlign=top;spacingLeft=4;spacingRight=4;overflow=hidden;rotatable=0;points=[[0,0.5],[1,0.5]];portConstraint=eastwest;rounded=0;shadow=0;html=0;" parent="D-ogVkgkDjXILA013YRQ-39" vertex="1">
          <mxGeometry y="156" width="283" height="26" as="geometry" />
        </mxCell>
        <mxCell id="D-ogVkgkDjXILA013YRQ-73" value="- SEGMENTATION_MODEL : const char *" style="text;align=left;verticalAlign=top;spacingLeft=4;spacingRight=4;overflow=hidden;rotatable=0;points=[[0,0.5],[1,0.5]];portConstraint=eastwest;rounded=0;shadow=0;html=0;" parent="D-ogVkgkDjXILA013YRQ-39" vertex="1">
          <mxGeometry y="182" width="283" height="26" as="geometry" />
        </mxCell>
        <mxCell id="D-ogVkgkDjXILA013YRQ-74" value="- OBJECTDETECTION_MODEL : const char *" style="text;align=left;verticalAlign=top;spacingLeft=4;spacingRight=4;overflow=hidden;rotatable=0;points=[[0,0.5],[1,0.5]];portConstraint=eastwest;rounded=0;shadow=0;html=0;" parent="D-ogVkgkDjXILA013YRQ-39" vertex="1">
          <mxGeometry y="208" width="283" height="26" as="geometry" />
        </mxCell>
        <mxCell id="D-ogVkgkDjXILA013YRQ-75" value="- CLASSIFICATION_MODEL : const char *" style="text;align=left;verticalAlign=top;spacingLeft=4;spacingRight=4;overflow=hidden;rotatable=0;points=[[0,0.5],[1,0.5]];portConstraint=eastwest;rounded=0;shadow=0;html=0;" parent="D-ogVkgkDjXILA013YRQ-39" vertex="1">
          <mxGeometry y="234" width="283" height="26" as="geometry" />
        </mxCell>
        <mxCell id="D-ogVkgkDjXILA013YRQ-76" value="- ANOMALYDECTECTION_MODEL : const char *" style="text;align=left;verticalAlign=top;spacingLeft=4;spacingRight=4;overflow=hidden;rotatable=0;points=[[0,0.5],[1,0.5]];portConstraint=eastwest;rounded=0;shadow=0;html=0;" parent="D-ogVkgkDjXILA013YRQ-39" vertex="1">
          <mxGeometry y="260" width="283" height="26" as="geometry" />
        </mxCell>
        <mxCell id="KFr7-NrDYInFaLeutiJz-11" value="- SEGMENTATION_IMAGE: const char *" style="text;align=left;verticalAlign=top;spacingLeft=4;spacingRight=4;overflow=hidden;rotatable=0;points=[[0,0.5],[1,0.5]];portConstraint=eastwest;rounded=0;shadow=0;html=0;" parent="D-ogVkgkDjXILA013YRQ-39" vertex="1">
          <mxGeometry y="286" width="283" height="26" as="geometry" />
        </mxCell>
        <mxCell id="KFr7-NrDYInFaLeutiJz-12" value="- OBJECTDETECTION_IMAGE: const char *" style="text;align=left;verticalAlign=top;spacingLeft=4;spacingRight=4;overflow=hidden;rotatable=0;points=[[0,0.5],[1,0.5]];portConstraint=eastwest;rounded=0;shadow=0;html=0;" parent="D-ogVkgkDjXILA013YRQ-39" vertex="1">
          <mxGeometry y="312" width="283" height="26" as="geometry" />
        </mxCell>
        <mxCell id="KFr7-NrDYInFaLeutiJz-13" value="- CLASSIFICATION_IMAGE: const char *" style="text;align=left;verticalAlign=top;spacingLeft=4;spacingRight=4;overflow=hidden;rotatable=0;points=[[0,0.5],[1,0.5]];portConstraint=eastwest;rounded=0;shadow=0;html=0;" parent="D-ogVkgkDjXILA013YRQ-39" vertex="1">
          <mxGeometry y="338" width="283" height="26" as="geometry" />
        </mxCell>
        <mxCell id="KFr7-NrDYInFaLeutiJz-14" value="- ANOMALYDECTECTION_IMAGE: const char *" style="text;align=left;verticalAlign=top;spacingLeft=4;spacingRight=4;overflow=hidden;rotatable=0;points=[[0,0.5],[1,0.5]];portConstraint=eastwest;rounded=0;shadow=0;html=0;" parent="D-ogVkgkDjXILA013YRQ-39" vertex="1">
          <mxGeometry y="364" width="283" height="28" as="geometry" />
        </mxCell>
        <mxCell id="D-ogVkgkDjXILA013YRQ-43" value="" style="endArrow=open;shadow=0;strokeWidth=1;rounded=0;endFill=1;elbow=vertical;" parent="WIyWlLk6GJQsqaUBKTNV-1" edge="1">
          <mxGeometry x="0.5" y="41" relative="1" as="geometry">
            <mxPoint x="-831" y="345" as="sourcePoint" />
            <mxPoint x="-780" y="345" as="targetPoint" />
            <mxPoint x="-40" y="32" as="offset" />
          </mxGeometry>
        </mxCell>
        <mxCell id="D-ogVkgkDjXILA013YRQ-44" value="" style="endArrow=block;endSize=10;endFill=0;shadow=0;strokeWidth=1;rounded=0;edgeStyle=elbowEdgeStyle;elbow=vertical;exitX=0.5;exitY=0;exitDx=0;exitDy=0;entryX=0.5;entryY=1;entryDx=0;entryDy=0;" parent="WIyWlLk6GJQsqaUBKTNV-1" source="D-ogVkgkDjXILA013YRQ-49" target="D-ogVkgkDjXILA013YRQ-28" edge="1">
          <mxGeometry width="160" relative="1" as="geometry">
            <mxPoint x="-218.5" y="622.5" as="sourcePoint" />
            <mxPoint x="-438.5" y="520.5" as="targetPoint" />
            <Array as="points">
              <mxPoint x="-296.5" y="633.5" />
            </Array>
          </mxGeometry>
        </mxCell>
        <mxCell id="D-ogVkgkDjXILA013YRQ-45" value="Segmentation" style="swimlane;fontStyle=1;childLayout=stackLayout;horizontal=1;startSize=30;horizontalStack=0;resizeParent=1;resizeParentMax=0;resizeLast=0;collapsible=1;marginBottom=0;" parent="WIyWlLk6GJQsqaUBKTNV-1" vertex="1">
          <mxGeometry x="-652.5" y="682.5" width="148" height="60" as="geometry" />
        </mxCell>
        <mxCell id="D-ogVkgkDjXILA013YRQ-64" value="+ OutputPreditInfo() : void" style="text;strokeColor=none;fillColor=none;align=left;verticalAlign=middle;spacingLeft=4;spacingRight=4;overflow=hidden;points=[[0,0.5],[1,0.5]];portConstraint=eastwest;rotatable=0;" parent="D-ogVkgkDjXILA013YRQ-45" vertex="1">
          <mxGeometry y="30" width="148" height="30" as="geometry" />
        </mxCell>
        <mxCell id="D-ogVkgkDjXILA013YRQ-47" value="ObjectDetection" style="swimlane;fontStyle=1;childLayout=stackLayout;horizontal=1;startSize=30;horizontalStack=0;resizeParent=1;resizeParentMax=0;resizeLast=0;collapsible=1;marginBottom=0;" parent="WIyWlLk6GJQsqaUBKTNV-1" vertex="1">
          <mxGeometry x="-492.5" y="682.5" width="148" height="60" as="geometry" />
        </mxCell>
        <mxCell id="D-ogVkgkDjXILA013YRQ-66" value="+ OutputPreditInfo() : void" style="text;strokeColor=none;fillColor=none;align=left;verticalAlign=middle;spacingLeft=4;spacingRight=4;overflow=hidden;points=[[0,0.5],[1,0.5]];portConstraint=eastwest;rotatable=0;" parent="D-ogVkgkDjXILA013YRQ-47" vertex="1">
          <mxGeometry y="30" width="148" height="30" as="geometry" />
        </mxCell>
        <mxCell id="D-ogVkgkDjXILA013YRQ-49" value="Classification" style="swimlane;fontStyle=1;childLayout=stackLayout;horizontal=1;startSize=30;horizontalStack=0;resizeParent=1;resizeParentMax=0;resizeLast=0;collapsible=1;marginBottom=0;" parent="WIyWlLk6GJQsqaUBKTNV-1" vertex="1">
          <mxGeometry x="-332.5" y="682.5" width="148" height="60" as="geometry" />
        </mxCell>
        <mxCell id="D-ogVkgkDjXILA013YRQ-70" value="+ OutputPreditInfo() : void" style="text;strokeColor=none;fillColor=none;align=left;verticalAlign=middle;spacingLeft=4;spacingRight=4;overflow=hidden;points=[[0,0.5],[1,0.5]];portConstraint=eastwest;rotatable=0;" parent="D-ogVkgkDjXILA013YRQ-49" vertex="1">
          <mxGeometry y="30" width="148" height="30" as="geometry" />
        </mxCell>
        <mxCell id="D-ogVkgkDjXILA013YRQ-51" value="" style="endArrow=block;endSize=10;endFill=0;shadow=0;strokeWidth=1;rounded=0;edgeStyle=elbowEdgeStyle;elbow=vertical;exitX=0.5;exitY=0;exitDx=0;exitDy=0;entryX=0.5;entryY=1;entryDx=0;entryDy=0;" parent="WIyWlLk6GJQsqaUBKTNV-1" source="D-ogVkgkDjXILA013YRQ-52" target="D-ogVkgkDjXILA013YRQ-28" edge="1">
          <mxGeometry width="160" relative="1" as="geometry">
            <mxPoint x="-68.5" y="622.5" as="sourcePoint" />
            <mxPoint x="-438.5" y="520.5" as="targetPoint" />
            <Array as="points">
              <mxPoint x="-216.5" y="633.5" />
            </Array>
          </mxGeometry>
        </mxCell>
        <mxCell id="D-ogVkgkDjXILA013YRQ-52" value="AnomalyDetection" style="swimlane;fontStyle=1;childLayout=stackLayout;horizontal=1;startSize=30;horizontalStack=0;resizeParent=1;resizeParentMax=0;resizeLast=0;collapsible=1;marginBottom=0;" parent="WIyWlLk6GJQsqaUBKTNV-1" vertex="1">
          <mxGeometry x="-172.5" y="682.5" width="148" height="60" as="geometry" />
        </mxCell>
        <mxCell id="D-ogVkgkDjXILA013YRQ-72" value="+ OutputPreditInfo() : void" style="text;strokeColor=none;fillColor=none;align=left;verticalAlign=middle;spacingLeft=4;spacingRight=4;overflow=hidden;points=[[0,0.5],[1,0.5]];portConstraint=eastwest;rotatable=0;" parent="D-ogVkgkDjXILA013YRQ-52" vertex="1">
          <mxGeometry y="30" width="148" height="30" as="geometry" />
        </mxCell>
        <mxCell id="D-ogVkgkDjXILA013YRQ-54" value="ModelFactory" style="swimlane;fontStyle=1;childLayout=stackLayout;horizontal=1;startSize=30;horizontalStack=0;resizeParent=1;resizeParentMax=0;resizeLast=0;collapsible=1;marginBottom=0;" parent="WIyWlLk6GJQsqaUBKTNV-1" vertex="1">
          <mxGeometry x="-778" y="270" width="200" height="158" as="geometry" />
        </mxCell>
        <mxCell id="D-ogVkgkDjXILA013YRQ-55" value="- current_model : ModelBase*" style="text;strokeColor=none;fillColor=none;align=left;verticalAlign=middle;spacingLeft=4;spacingRight=4;overflow=hidden;points=[[0,0.5],[1,0.5]];portConstraint=eastwest;rotatable=0;" parent="D-ogVkgkDjXILA013YRQ-54" vertex="1">
          <mxGeometry y="30" width="200" height="30" as="geometry" />
        </mxCell>
        <mxCell id="KFr7-NrDYInFaLeutiJz-10" value="" style="line;strokeWidth=1;fillColor=none;align=left;verticalAlign=middle;spacingTop=-1;spacingLeft=3;spacingRight=3;rotatable=0;labelPosition=right;points=[];portConstraint=eastwest;" parent="D-ogVkgkDjXILA013YRQ-54" vertex="1">
          <mxGeometry y="60" width="200" height="8" as="geometry" />
        </mxCell>
        <mxCell id="KFr7-NrDYInFaLeutiJz-0" value="+ GenerateModel(string) : void" style="text;strokeColor=none;fillColor=none;align=left;verticalAlign=middle;spacingLeft=4;spacingRight=4;overflow=hidden;points=[[0,0.5],[1,0.5]];portConstraint=eastwest;rotatable=0;" parent="D-ogVkgkDjXILA013YRQ-54" vertex="1">
          <mxGeometry y="68" width="200" height="30" as="geometry" />
        </mxCell>
        <mxCell id="KFr7-NrDYInFaLeutiJz-1" value="+ GetCurrentModel() : ModelBase* " style="text;strokeColor=none;fillColor=none;align=left;verticalAlign=middle;spacingLeft=4;spacingRight=4;overflow=hidden;points=[[0,0.5],[1,0.5]];portConstraint=eastwest;rotatable=0;" parent="D-ogVkgkDjXILA013YRQ-54" vertex="1">
          <mxGeometry y="98" width="200" height="30" as="geometry" />
        </mxCell>
        <mxCell id="gn1iUnahTkc9VjTUZe64-2" value="+ FreeModel() : void" style="text;strokeColor=none;fillColor=none;align=left;verticalAlign=middle;spacingLeft=4;spacingRight=4;overflow=hidden;points=[[0,0.5],[1,0.5]];portConstraint=eastwest;rotatable=0;" vertex="1" parent="D-ogVkgkDjXILA013YRQ-54">
          <mxGeometry y="128" width="200" height="30" as="geometry" />
        </mxCell>
        <mxCell id="gsVewO149f7CsDIdrS-x-0" value="PathOperator" style="swimlane;fontStyle=1;align=center;verticalAlign=top;childLayout=stackLayout;horizontal=1;startSize=26;horizontalStack=0;resizeParent=1;resizeLast=0;collapsible=1;marginBottom=0;rounded=0;shadow=0;strokeWidth=1;" parent="WIyWlLk6GJQsqaUBKTNV-1" vertex="1">
          <mxGeometry x="-1141" y="457" width="340" height="334" as="geometry">
            <mxRectangle x="230" y="140" width="160" height="26" as="alternateBounds" />
          </mxGeometry>
        </mxCell>
        <mxCell id="gsVewO149f7CsDIdrS-x-1" value="- m_image_path : const char *" style="text;align=left;verticalAlign=top;spacingLeft=4;spacingRight=4;overflow=hidden;rotatable=0;points=[[0,0.5],[1,0.5]];portConstraint=eastwest;" parent="gsVewO149f7CsDIdrS-x-0" vertex="1">
          <mxGeometry y="26" width="340" height="26" as="geometry" />
        </mxCell>
        <mxCell id="gsVewO149f7CsDIdrS-x-2" value="- m_save_image_path : const char *" style="text;align=left;verticalAlign=top;spacingLeft=4;spacingRight=4;overflow=hidden;rotatable=0;points=[[0,0.5],[1,0.5]];portConstraint=eastwest;rounded=0;shadow=0;html=0;" parent="gsVewO149f7CsDIdrS-x-0" vertex="1">
          <mxGeometry y="52" width="340" height="26" as="geometry" />
        </mxCell>
        <mxCell id="gsVewO149f7CsDIdrS-x-3" value="- m_save_file_path : const char *" style="text;align=left;verticalAlign=top;spacingLeft=4;spacingRight=4;overflow=hidden;rotatable=0;points=[[0,0.5],[1,0.5]];portConstraint=eastwest;rounded=0;shadow=0;html=0;" parent="gsVewO149f7CsDIdrS-x-0" vertex="1">
          <mxGeometry y="78" width="340" height="26" as="geometry" />
        </mxCell>
        <mxCell id="gsVewO149f7CsDIdrS-x-4" value="- m_save_root_directory : const char *" style="text;align=left;verticalAlign=top;spacingLeft=4;spacingRight=4;overflow=hidden;rotatable=0;points=[[0,0.5],[1,0.5]];portConstraint=eastwest;rounded=0;shadow=0;html=0;" parent="gsVewO149f7CsDIdrS-x-0" vertex="1">
          <mxGeometry y="104" width="340" height="26" as="geometry" />
        </mxCell>
        <mxCell id="gsVewO149f7CsDIdrS-x-6" value="" style="line;html=1;strokeWidth=1;align=left;verticalAlign=middle;spacingTop=-1;spacingLeft=3;spacingRight=3;rotatable=0;labelPosition=right;points=[];portConstraint=eastwest;" parent="gsVewO149f7CsDIdrS-x-0" vertex="1">
          <mxGeometry y="130" width="340" height="8" as="geometry" />
        </mxCell>
        <mxCell id="gsVewO149f7CsDIdrS-x-8" value="+ CreateDirectory(const char *) : void" style="text;align=left;verticalAlign=top;spacingLeft=4;spacingRight=4;overflow=hidden;rotatable=0;points=[[0,0.5],[1,0.5]];portConstraint=eastwest;" parent="gsVewO149f7CsDIdrS-x-0" vertex="1">
          <mxGeometry y="138" width="340" height="28" as="geometry" />
        </mxCell>
        <mxCell id="gsVewO149f7CsDIdrS-x-9" value="+ SetPath(const char *) : void" style="text;align=left;verticalAlign=top;spacingLeft=4;spacingRight=4;overflow=hidden;rotatable=0;points=[[0,0.5],[1,0.5]];portConstraint=eastwest;" parent="gsVewO149f7CsDIdrS-x-0" vertex="1">
          <mxGeometry y="166" width="340" height="28" as="geometry" />
        </mxCell>
        <mxCell id="gsVewO149f7CsDIdrS-x-10" value="+ SetSaveRootDirectory(const char *) : void" style="text;align=left;verticalAlign=top;spacingLeft=4;spacingRight=4;overflow=hidden;rotatable=0;points=[[0,0.5],[1,0.5]];portConstraint=eastwest;" parent="gsVewO149f7CsDIdrS-x-0" vertex="1">
          <mxGeometry y="194" width="340" height="28" as="geometry" />
        </mxCell>
        <mxCell id="gsVewO149f7CsDIdrS-x-11" value="+ GetImagePath() : const char *" style="text;align=left;verticalAlign=top;spacingLeft=4;spacingRight=4;overflow=hidden;rotatable=0;points=[[0,0.5],[1,0.5]];portConstraint=eastwest;" parent="gsVewO149f7CsDIdrS-x-0" vertex="1">
          <mxGeometry y="222" width="340" height="28" as="geometry" />
        </mxCell>
        <mxCell id="gsVewO149f7CsDIdrS-x-12" value="+ GetSaveImagePath() : const char *" style="text;align=left;verticalAlign=top;spacingLeft=4;spacingRight=4;overflow=hidden;rotatable=0;points=[[0,0.5],[1,0.5]];portConstraint=eastwest;" parent="gsVewO149f7CsDIdrS-x-0" vertex="1">
          <mxGeometry y="250" width="340" height="28" as="geometry" />
        </mxCell>
        <mxCell id="gsVewO149f7CsDIdrS-x-13" value="+ GetSaveFilePath() : const char *" style="text;align=left;verticalAlign=top;spacingLeft=4;spacingRight=4;overflow=hidden;rotatable=0;points=[[0,0.5],[1,0.5]];portConstraint=eastwest;" parent="gsVewO149f7CsDIdrS-x-0" vertex="1">
          <mxGeometry y="278" width="340" height="28" as="geometry" />
        </mxCell>
        <mxCell id="gsVewO149f7CsDIdrS-x-15" value="- CombinatePath(const char *, const char *) : const char *" style="text;align=left;verticalAlign=top;spacingLeft=4;spacingRight=4;overflow=hidden;rotatable=0;points=[[0,0.5],[1,0.5]];portConstraint=eastwest;" parent="gsVewO149f7CsDIdrS-x-0" vertex="1">
          <mxGeometry y="306" width="340" height="28" as="geometry" />
        </mxCell>
        <mxCell id="gsVewO149f7CsDIdrS-x-18" value="" style="endArrow=open;shadow=0;strokeWidth=1;rounded=0;endFill=1;edgeStyle=elbowEdgeStyle;elbow=vertical;exitX=0.5;exitY=1;exitDx=0;exitDy=0;entryX=0.491;entryY=-0.003;entryDx=0;entryDy=0;entryPerimeter=0;" parent="WIyWlLk6GJQsqaUBKTNV-1" edge="1" target="gsVewO149f7CsDIdrS-x-0" source="D-ogVkgkDjXILA013YRQ-39">
          <mxGeometry x="0.5" y="41" relative="1" as="geometry">
            <mxPoint x="-975" y="407" as="sourcePoint" />
            <mxPoint x="-970" y="440" as="targetPoint" />
            <mxPoint x="-40" y="32" as="offset" />
            <Array as="points">
              <mxPoint x="-970" y="409" />
            </Array>
          </mxGeometry>
        </mxCell>
        <mxCell id="gn1iUnahTkc9VjTUZe64-9" value="" style="endArrow=open;shadow=0;strokeWidth=1;rounded=0;endFill=1;elbow=vertical;exitX=1.009;exitY=0.265;exitDx=0;exitDy=0;exitPerimeter=0;" edge="1" parent="WIyWlLk6GJQsqaUBKTNV-1" source="KFr7-NrDYInFaLeutiJz-0">
          <mxGeometry x="0.5" y="41" relative="1" as="geometry">
            <mxPoint x="-580" y="346" as="sourcePoint" />
            <mxPoint x="-508.5" y="346.38" as="targetPoint" />
            <mxPoint x="-40" y="32" as="offset" />
          </mxGeometry>
        </mxCell>
        <mxCell id="gn1iUnahTkc9VjTUZe64-14" value="" style="endArrow=open;shadow=0;strokeWidth=1;rounded=0;endFill=1;elbow=vertical;entryX=0.499;entryY=1.076;entryDx=0;entryDy=0;entryPerimeter=0;exitX=0.5;exitY=0;exitDx=0;exitDy=0;" edge="1" parent="WIyWlLk6GJQsqaUBKTNV-1" target="gn1iUnahTkc9VjTUZe64-21" source="D-ogVkgkDjXILA013YRQ-28">
          <mxGeometry x="0.5" y="41" relative="1" as="geometry">
            <mxPoint x="-340" y="330" as="sourcePoint" />
            <mxPoint x="-310" y="300" as="targetPoint" />
            <mxPoint x="-40" y="32" as="offset" />
          </mxGeometry>
        </mxCell>
        <mxCell id="gn1iUnahTkc9VjTUZe64-15" value="FileOperator" style="swimlane;fontStyle=1;childLayout=stackLayout;horizontal=1;startSize=30;horizontalStack=0;resizeParent=1;resizeParentMax=0;resizeLast=0;collapsible=1;marginBottom=0;" vertex="1" parent="WIyWlLk6GJQsqaUBKTNV-1">
          <mxGeometry x="-541.25" y="70" width="405.5" height="188" as="geometry" />
        </mxCell>
        <mxCell id="gn1iUnahTkc9VjTUZe64-16" value="- m_filehandler: ofstream " style="text;strokeColor=none;fillColor=none;align=left;verticalAlign=middle;spacingLeft=4;spacingRight=4;overflow=hidden;points=[[0,0.5],[1,0.5]];portConstraint=eastwest;rotatable=0;" vertex="1" parent="gn1iUnahTkc9VjTUZe64-15">
          <mxGeometry y="30" width="405.5" height="30" as="geometry" />
        </mxCell>
        <mxCell id="gn1iUnahTkc9VjTUZe64-17" value="" style="line;strokeWidth=1;fillColor=none;align=left;verticalAlign=middle;spacingTop=-1;spacingLeft=3;spacingRight=3;rotatable=0;labelPosition=right;points=[];portConstraint=eastwest;" vertex="1" parent="gn1iUnahTkc9VjTUZe64-15">
          <mxGeometry y="60" width="405.5" height="8" as="geometry" />
        </mxCell>
        <mxCell id="gn1iUnahTkc9VjTUZe64-18" value="+ WriteClassificationFile(const char *, ClassificationInfo) : void" style="text;strokeColor=none;fillColor=none;align=left;verticalAlign=middle;spacingLeft=4;spacingRight=4;overflow=hidden;points=[[0,0.5],[1,0.5]];portConstraint=eastwest;rotatable=0;" vertex="1" parent="gn1iUnahTkc9VjTUZe64-15">
          <mxGeometry y="68" width="405.5" height="30" as="geometry" />
        </mxCell>
        <mxCell id="gn1iUnahTkc9VjTUZe64-19" value="+ WriteSegmentationFile(const char *, SegmentationInfo) : void " style="text;strokeColor=none;fillColor=none;align=left;verticalAlign=middle;spacingLeft=4;spacingRight=4;overflow=hidden;points=[[0,0.5],[1,0.5]];portConstraint=eastwest;rotatable=0;" vertex="1" parent="gn1iUnahTkc9VjTUZe64-15">
          <mxGeometry y="98" width="405.5" height="30" as="geometry" />
        </mxCell>
        <mxCell id="gn1iUnahTkc9VjTUZe64-20" value="+ WriteAnomalyDetectionFile(const char *, AnomalyDetectionInfo) : void " style="text;strokeColor=none;fillColor=none;align=left;verticalAlign=middle;spacingLeft=4;spacingRight=4;overflow=hidden;points=[[0,0.5],[1,0.5]];portConstraint=eastwest;rotatable=0;" vertex="1" parent="gn1iUnahTkc9VjTUZe64-15">
          <mxGeometry y="128" width="405.5" height="30" as="geometry" />
        </mxCell>
        <mxCell id="gn1iUnahTkc9VjTUZe64-21" value="+ WriteObjectDetectionFile(const char *, ObjectDetectionInfo) : void " style="text;strokeColor=none;fillColor=none;align=left;verticalAlign=middle;spacingLeft=4;spacingRight=4;overflow=hidden;points=[[0,0.5],[1,0.5]];portConstraint=eastwest;rotatable=0;" vertex="1" parent="gn1iUnahTkc9VjTUZe64-15">
          <mxGeometry y="158" width="405.5" height="30" as="geometry" />
        </mxCell>
      </root>
    </mxGraphModel>
  </diagram>
</mxfile>
